# xmcd
#
# Track frame offsets:
#	150
#	14537
#	30226
#	48757
#	58214
#	75399
#	89821
#	100981
#	116968
#	134204
#	148030
#	163762
#	177421
#	191644
#	204050
#	217187
#	234412
#	248471
#	262076
#	278249
#	296359
#
# Disc length: 4184 seconds
#
# Revision: 0
# Processed by: cddbd v1.5.2PL0 Copyright (c) Steve Scherf et al.
# Submitted via: EZCDAudioConverter 7.0.6.1
#
DISCID=3c105615
DTITLE=Nu Urban Traxx Volume 243 US
DYEAR=2017
DGENRE=blues
TTITLE0=Future and Young Thug - Patek Water
TTITLE1=Khalid - Saved
TTITLE2=French Montana - Famous
TTITLE3=Lil Pump - Gucci Gang
TTITLE4=Remy Ma ft. Lil' Kim - Wake Me Up
TTITLE5=Wiz Khalifa - Letterman
TTITLE6=XXXTENTACION ft. Trippie Redd - Love
TTITLE7=The Game ft. Jeremih, Young Thug and Sevyn - Oh I
TTITLE8=Big Sean and Metro Boomin ft. 21 Savage - Pull Up N Wreck
TTITLE9=Russ - Wife You Up
TTITLE10=Ball Greezy - Nice and Slow
TTITLE11=Lecrae - Broke
TTITLE12=N.E.R.D. and Rihanna - Lemon
TTITLE13=Ty Dolla $ign ft. YG - Ex
TTITLE14=Jacquees ft. Dej Loaf - At The Club
TTITLE15=Calvin Harris ft. Kehlani and Lil Yachty - Faking It
TTITLE16=Tru Life ft. Future - Last Night
TTITLE17=Lil' Kim - Took Us A Break
TTITLE18=Kodak Black ft. XXXTENTACION - Roll In Peace
TTITLE19=Toni Braxton - Deadwood
TTITLE20=Major. - Honest
EXTD=
EXTT0=
EXTT1=
EXTT2=
EXTT3=
EXTT4=
EXTT5=
EXTT6=
EXTT7=
EXTT8=
EXTT9=
EXTT10=
EXTT11=
EXTT12=
EXTT13=
EXTT14=
EXTT15=
EXTT16=
EXTT17=
EXTT18=
EXTT19=
EXTT20=
PLAYORDER=
